M48
; DRILL file {KiCad 8.0.5} date 2024-10-23T10:28:52+0200
; FORMAT={-:-/ absolute / inch / decimal}
; #@! TF.CreationDate,2024-10-23T10:28:52+02:00
; #@! TF.GenerationSoftware,Kicad,Pcbnew,8.0.5
; #@! TF.FileFunction,Plated,1,2,PTH
FMAT,2
INCH
; #@! TA.AperFunction,Plated,PTH,ComponentDrill
T1C0.0295
; #@! TA.AperFunction,Plated,PTH,ViaDrill
T2C0.0354
; #@! TA.AperFunction,Plated,PTH,ComponentDrill
T3C0.0394
%
G90
G05
T1
X4.9213Y-3.2035
X5.0Y-3.2035
X5.0787Y-3.2035
X5.4546Y-3.2035
X5.5333Y-3.2035
X5.6121Y-3.2035
X5.9879Y-3.2035
X6.0667Y-3.2035
X6.1454Y-3.2035
X6.5213Y-3.2035
X6.6Y-3.2035
X6.6787Y-3.2035
T2
X5.275Y-3.15
X5.3Y-2.2
X5.4Y-2.2
X5.65Y-3.025
X5.825Y-3.2
X6.5213Y-3.0933
T3
X4.9Y-1.9
X4.9Y-2.9
X5.0Y-1.9
X5.0Y-2.9
X5.1Y-1.9
X5.1Y-2.9
X5.2Y-1.9
X5.2Y-2.9
X5.3Y-1.9
X5.3Y-2.9
X5.4Y-1.9
X5.4Y-2.9
X5.5Y-1.9
X5.5Y-2.9
X5.6Y-1.9
X5.6Y-2.9
X5.7Y-1.9
X5.7Y-2.9
X5.8Y-1.9
X5.8Y-2.9
X5.9Y-1.9
X5.9Y-2.9
X6.0Y-1.9
X6.0Y-2.9
X6.1Y-1.9
X6.1Y-2.9
X6.2Y-1.9
X6.2Y-2.9
X6.3Y-1.9
X6.3Y-2.9
X6.4Y-1.9
X6.4Y-2.9
X6.5Y-1.9
X6.5Y-2.9
X6.6Y-1.9
X6.6Y-2.9
X6.7Y-1.9
X6.7Y-2.9
M30
