%TF.GenerationSoftware,KiCad,Pcbnew,8.0.5*%
%TF.CreationDate,2024-10-23T10:28:48+02:00*%
%TF.ProjectId,Breakout board,42726561-6b6f-4757-9420-626f6172642e,rev?*%
%TF.SameCoordinates,Original*%
%TF.FileFunction,Copper,L1,Top*%
%TF.FilePolarity,Positive*%
%FSLAX46Y46*%
G04 Gerber Fmt 4.6, Leading zero omitted, Abs format (unit mm)*
G04 Created by KiCad (PCBNEW 8.0.5) date 2024-10-23 10:28:48*
%MOMM*%
%LPD*%
G01*
G04 APERTURE LIST*
G04 Aperture macros list*
%AMRoundRect*
0 Rectangle with rounded corners*
0 $1 Rounding radius*
0 $2 $3 $4 $5 $6 $7 $8 $9 X,Y pos of 4 corners*
0 Add a 4 corners polygon primitive as box body*
4,1,4,$2,$3,$4,$5,$6,$7,$8,$9,$2,$3,0*
0 Add four circle primitives for the rounded corners*
1,1,$1+$1,$2,$3*
1,1,$1+$1,$4,$5*
1,1,$1+$1,$6,$7*
1,1,$1+$1,$8,$9*
0 Add four rect primitives between the rounded corners*
20,1,$1+$1,$2,$3,$4,$5,0*
20,1,$1+$1,$4,$5,$6,$7,0*
20,1,$1+$1,$6,$7,$8,$9,0*
20,1,$1+$1,$8,$9,$2,$3,0*%
G04 Aperture macros list end*
%TA.AperFunction,ComponentPad*%
%ADD10RoundRect,0.250000X-0.350000X-0.625000X0.350000X-0.625000X0.350000X0.625000X-0.350000X0.625000X0*%
%TD*%
%TA.AperFunction,ComponentPad*%
%ADD11O,1.200000X1.750000*%
%TD*%
%TA.AperFunction,ComponentPad*%
%ADD12R,1.500000X2.500000*%
%TD*%
%TA.AperFunction,ComponentPad*%
%ADD13O,1.500000X2.500000*%
%TD*%
%TA.AperFunction,ViaPad*%
%ADD14C,1.400000*%
%TD*%
%TA.AperFunction,Conductor*%
%ADD15C,0.400000*%
%TD*%
G04 APERTURE END LIST*
D10*
%TO.P,Temp,1,Pin_1*%
%TO.N,Net-(J2-GPIO_02)*%
X138546666Y-81370000D03*
D11*
%TO.P,Temp,2,Pin_2*%
%TO.N,Net-(J1-5V)*%
X140546666Y-81370000D03*
%TO.P,Temp,3,Pin_3*%
%TO.N,Net-(J1-GND)*%
X142546666Y-81370000D03*
%TD*%
D12*
%TO.P,J1,1,3V3*%
%TO.N,unconnected-(J1-3V3-Pad1)*%
X124460000Y-73660000D03*
D13*
%TO.P,J1,2,Restart*%
%TO.N,unconnected-(J1-Restart-Pad2)*%
X127000000Y-73660000D03*
%TO.P,J1,3,GPIO_36*%
%TO.N,unconnected-(J1-GPIO_36-Pad3)*%
X129540000Y-73660000D03*
%TO.P,J1,4,GPIO_39*%
%TO.N,unconnected-(J1-GPIO_39-Pad4)*%
X132080000Y-73660000D03*
%TO.P,J1,5,GPIO_34*%
%TO.N,unconnected-(J1-GPIO_34-Pad5)*%
X134620000Y-73660000D03*
%TO.P,J1,6,GPIO_35*%
%TO.N,unconnected-(J1-GPIO_35-Pad6)*%
X137160000Y-73660000D03*
%TO.P,J1,7,GPIO_32*%
%TO.N,Net-(J1-GPIO_32)*%
X139700000Y-73660000D03*
%TO.P,J1,8,GPIO_33*%
%TO.N,Net-(TDS1-Pin_1)*%
X142240000Y-73660000D03*
%TO.P,J1,9,GPIO_33*%
%TO.N,unconnected-(J1-GPIO_33-Pad9)*%
X144780000Y-73660000D03*
%TO.P,J1,10,GPIO_25*%
%TO.N,unconnected-(J1-GPIO_25-Pad10)*%
X147320000Y-73660000D03*
%TO.P,J1,11,GPIO_26*%
%TO.N,unconnected-(J1-GPIO_26-Pad11)*%
X149860000Y-73660000D03*
%TO.P,J1,12,GPIO_27*%
%TO.N,unconnected-(J1-GPIO_27-Pad12)*%
X152400000Y-73660000D03*
%TO.P,J1,13,GPIO_14*%
%TO.N,unconnected-(J1-GPIO_14-Pad13)*%
X154940000Y-73660000D03*
%TO.P,J1,14,GPIO_12*%
%TO.N,unconnected-(J1-GPIO_12-Pad14)*%
X157480000Y-73660000D03*
%TO.P,J1,15,GND*%
%TO.N,Net-(J1-GND)*%
X160020000Y-73660000D03*
%TO.P,J1,16,NO_USE*%
%TO.N,unconnected-(J1-NO_USE-Pad16)*%
X162560000Y-73660000D03*
%TO.P,J1,17,NO_USE*%
%TO.N,unconnected-(J1-NO_USE-Pad17)*%
X165100000Y-73660000D03*
%TO.P,J1,18,NO_USE*%
%TO.N,unconnected-(J1-NO_USE-Pad18)*%
X167640000Y-73660000D03*
%TO.P,J1,19,5V*%
%TO.N,Net-(J1-5V)*%
X170180000Y-73660000D03*
%TD*%
D12*
%TO.P,J2,1,Pin_1*%
%TO.N,unconnected-(J2-Pin_1-Pad1)*%
X124460000Y-48260000D03*
D13*
%TO.P,J2,2,Pin_2*%
%TO.N,unconnected-(J2-Pin_2-Pad2)*%
X127000000Y-48260000D03*
%TO.P,J2,3,NO_USE*%
%TO.N,unconnected-(J2-NO_USE-Pad3)*%
X129540000Y-48260000D03*
%TO.P,J2,4,Pin_4*%
%TO.N,unconnected-(J2-Pin_4-Pad4)*%
X132080000Y-48260000D03*
%TO.P,J2,5,GPIO_02*%
%TO.N,Net-(J2-GPIO_02)*%
X134620000Y-48260000D03*
%TO.P,J2,6,GPIO_00*%
%TO.N,Net-(J2-GPIO_00)*%
X137160000Y-48260000D03*
%TO.P,J2,7,Pin_7*%
%TO.N,unconnected-(J2-Pin_7-Pad7)*%
X139700000Y-48260000D03*
%TO.P,J2,8,Pin_8*%
%TO.N,unconnected-(J2-Pin_8-Pad8)*%
X142240000Y-48260000D03*
%TO.P,J2,9,Pin_9*%
%TO.N,unconnected-(J2-Pin_9-Pad9)*%
X144780000Y-48260000D03*
%TO.P,J2,10,Pin_10*%
%TO.N,unconnected-(J2-Pin_10-Pad10)*%
X147320000Y-48260000D03*
%TO.P,J2,11,Pin_11*%
%TO.N,unconnected-(J2-Pin_11-Pad11)*%
X149860000Y-48260000D03*
%TO.P,J2,12,Pin_12*%
%TO.N,unconnected-(J2-Pin_12-Pad12)*%
X152400000Y-48260000D03*
%TO.P,J2,13,Pin_13*%
%TO.N,unconnected-(J2-Pin_13-Pad13)*%
X154940000Y-48260000D03*
%TO.P,J2,14,Pin_14*%
%TO.N,unconnected-(J2-Pin_14-Pad14)*%
X157480000Y-48260000D03*
%TO.P,J2,15,Pin_15*%
%TO.N,unconnected-(J2-Pin_15-Pad15)*%
X160020000Y-48260000D03*
%TO.P,J2,16,Pin_16*%
%TO.N,unconnected-(J2-Pin_16-Pad16)*%
X162560000Y-48260000D03*
%TO.P,J2,17,Pin_17*%
%TO.N,unconnected-(J2-Pin_17-Pad17)*%
X165100000Y-48260000D03*
%TO.P,J2,18,Pin_18*%
%TO.N,unconnected-(J2-Pin_18-Pad18)*%
X167640000Y-48260000D03*
%TO.P,J2,19,Pin_19*%
%TO.N,unconnected-(J2-Pin_19-Pad19)*%
X170180000Y-48260000D03*
%TD*%
D10*
%TO.P,Trubiditet,1,Pin_1*%
%TO.N,Net-(J2-GPIO_00)*%
X165640000Y-81370000D03*
D11*
%TO.P,Trubiditet,2,Pin_2*%
%TO.N,Net-(J1-5V)*%
X167640000Y-81370000D03*
%TO.P,Trubiditet,3,Pin_3*%
%TO.N,Net-(J1-GND)*%
X169640000Y-81370000D03*
%TD*%
D10*
%TO.P,PH,1,Pin_1*%
%TO.N,Net-(J1-GPIO_32)*%
X125000000Y-81370000D03*
D11*
%TO.P,PH,2,Pin_2*%
%TO.N,Net-(J1-5V)*%
X127000000Y-81370000D03*
%TO.P,PH,3,Pin_3*%
%TO.N,Net-(J1-GND)*%
X129000000Y-81370000D03*
%TD*%
D10*
%TO.P,TDS,1,Pin_1*%
%TO.N,Net-(TDS1-Pin_1)*%
X152093332Y-81370000D03*
D11*
%TO.P,TDS,2,Pin_2*%
%TO.N,Net-(J1-5V)*%
X154093332Y-81370000D03*
%TO.P,TDS,3,Pin_3*%
%TO.N,Net-(J1-GND)*%
X156093332Y-81370000D03*
%TD*%
D14*
%TO.N,Net-(TDS1-Pin_1)*%
X143510000Y-76835000D03*
X147955000Y-81280000D03*
%TO.N,Net-(J2-GPIO_02)*%
X134620000Y-55880000D03*
X133985000Y-80010000D03*
%TO.N,Net-(J2-GPIO_00)*%
X137160000Y-55880000D03*
X165640000Y-78570000D03*
%TD*%
D15*
%TO.N,Net-(J2-GPIO_00)*%
X137160000Y-60325000D02*
X137160000Y-55880000D01*
X138430000Y-61595000D02*
X137160000Y-60325000D01*
X171450000Y-61595000D02*
X138430000Y-61595000D01*
X173355000Y-76200000D02*
X173355000Y-63500000D01*
X172085000Y-77470000D02*
X173355000Y-76200000D01*
X165640000Y-78570000D02*
X166740000Y-77470000D01*
X166740000Y-77470000D02*
X172085000Y-77470000D01*
X173355000Y-63500000D02*
X171450000Y-61595000D01*
%TO.N,Net-(J2-GPIO_02)*%
X134620000Y-60325000D02*
X134620000Y-55880000D01*
X122555000Y-76835000D02*
X121285000Y-75565000D01*
X130810000Y-76835000D02*
X122555000Y-76835000D01*
X133350000Y-61595000D02*
X134620000Y-60325000D01*
X121285000Y-75565000D02*
X121285000Y-63500000D01*
X133985000Y-80010000D02*
X130810000Y-76835000D01*
X123190000Y-61595000D02*
X133350000Y-61595000D01*
X121285000Y-63500000D02*
X123190000Y-61595000D01*
%TO.N,Net-(TDS1-Pin_1)*%
X147955000Y-81280000D02*
X143510000Y-76835000D01*
%TD*%
M02*
